# xmcd
#
# Track frame offsets:
#	150
#	15269
#	29531
#	43101
#	55801
#	84885
#	97200
#	110777
#	121962
#	132718
#	146244
#	158382
#
# Disc length: 2286 seconds
#
# Revision: 0
# Processed by: cddbd v1.4PL0 Copyright (c) Steve Scherf et al.
# Submitted via: dBpowerAMP V4.0
#
DISCID=a208ec0c
DTITLE=Contra Punto - Contra Punto
DYEAR=1900
DGENRE=Tradicional Ecuad
TTITLE0=Mi Quito es un eden
TTITLE1=Guitarra vieja
TTITLE2=Panecillo
TTITLE3=Samba samba
TTITLE4=Romantico Quito mio
TTITLE5=Algo que te han visto
TTITLE6=En el santo de pinzan
TTITLE7=Solito voy con mis penas
TTITLE8=Promesas de mi amor
TTITLE9=Panchito verde
TTITLE10=Corre toro
TTITLE11=Guayaquil de mis amores
EXTD=
EXTT0=
EXTT1=
EXTT2=
EXTT3=
EXTT4=
EXTT5=
EXTT6=
EXTT7=
EXTT8=
EXTT9=
EXTT10=
EXTT11=
PLAYORDER=
